<?xml version="1.0" encoding="UTF-8"?>
<svg viewBox="-196.56679151061175 -215.64641420446665 393.1335830212235 315.6464142044666" xmlns="http://www.w3.org/2000/svg" xmlns:xlink="http://www.w3.org/1999/xlink" version="1.1" class="jsx-2263963463 artboard-inner" style="width:240.379px;height:193px;max-height:100%">
    <g transform="translate(-196.56679151061175 99.87515605493134) scale(1.7339436815092244)" fill="#232323">
        <g id="line1">
            <path d="M57.600-57.600L44.640-57.600L44.640-17.352L28.800-33.480L12.888-17.352L12.888-57.600L0-57.600L0 0L12.888 0L28.800-14.976L44.640 0L57.600 0Z"/>
            <path d="M64.440 0L77.400 0L77.400-40.176L93.240-24.120L109.152-40.176L109.152 0L122.040 0L122.040-57.600L109.152-57.600L93.240-42.624L77.400-57.600L64.440-57.600Z"/>
            <path d="M173.952 0.072L173.952-12.816L141.768-12.816L141.768-44.640L173.952-44.640L173.952-57.528L128.880-57.528L128.880 0.072Z"/>
            <path d="M226.728-35.280L193.680-35.280L193.680-44.712L226.728-44.712L226.728-57.600L180.792-57.600L180.792-22.608L213.984-22.608L213.984-12.816L180.792-12.816L180.792 0L226.728 0Z"/>
        </g>
    </g>
    <g transform="translate(-109.20377306145097 -232.0269801636843) scale(2.1840754612290194)" id="logomark">
        <g fill="#232323">
            <path d="M49.313 7.5L5 30.188V37.5l45-22.688L95 37.5v-7.313L49.312 7.5zm.687 11l-11.656 5.813 11.656 7 11.656-7L50 18.5zM30.937 28L13 37v36.969L50 92.5l37-18.531V37l-17.969-9-12.281 7.375 15.469 9v14.844l-7.406 3.687V48.188L50 39.5l-14.781 8.688v14.78l-7.438-3.687V44.5l15.469-9.125L30.937 28z" overflow="visible" color="#232323"/>
        </g>
    </g>
</svg>
