<?xml version="1.0" encoding="UTF-8"?>
<svg xmlns="http://www.w3.org/2000/svg" xmlns:xlink="http://www.w3.org/1999/xlink" class="jsx-2263963463 artboard-inner" style="width:339px;height:101.107px;max-height:100%" version="1.1" viewBox="-223.545 -73.88027592859666 527.045 157.19207644382269">
    <g fill="#FFFFFF" transform="translate(0 50) scale(1.736111111111111)">
        <g id="line1">
            <path d="M57.600-57.600L44.640-57.600L44.640-17.352L28.800-33.480L12.888-17.352L12.888-57.600L0-57.600L0 0L12.888 0L28.800-14.976L44.640 0L57.600 0Z"/>
            <path d="M64.440 0L77.400 0L77.400-40.176L93.240-24.120L109.152-40.176L109.152 0L122.040 0L122.040-57.600L109.152-57.600L93.240-42.624L77.400-57.600L64.440-57.600Z"/>
            <path d="M174.816-35.280L141.768-35.280L141.768-44.712L174.816-44.712L174.816-57.600L128.880-57.600L128.880-22.608L162.072-22.608L162.072-12.816L128.880-12.816L128.880 0L174.816 0Z"/>
        </g>
    </g>
    <g id="logomark" transform="translate(-234.63844743211024 -99.2068301706676) scale(2.093103590381429)">
        <g fill="#FFFFFF">
            <path d="M46.6 50.4H25.1v36.7h40.1v-20H46.6V50.4zm-18.3 5.9l10.8 10.8h-4.7L28.3 61v-4.7zm0 6.5l4.4 4.4h-4.4v-4.4zm0 21.2v-4.4l4.4 4.4h-4.4zm6.1 0l-6.2-6.2v-4.7l11 10.9h-4.8zm9.1 0h-2.6L28.3 71.4v-1H32l11.5 11.5V84zm0-3.9l-9.8-9.8h4.7l5 5v4.8zm0-6.4l-3.3-3.3h3.3v3.3zm0-6.5h-2.6L28.3 54.6v-1.1H32L43.5 65v2.2zm0-3.9l-9.8-9.8h4.7l5.1 5.1v4.7zm0-6.4l-3.3-3.3h3.3v3.3zm18.4 13.4v3.3l-3.3-3.3h3.3zm-5 0l5.1 5.1v4.7l-9.8-9.8h4.7zm-10.2 0h3.7l11.5 11.5V84h-2.6L46.7 71.4v-1.1zm0 2.8L57.6 84h-4.7l-6.2-6.2v-4.7zm0 6.5l4.4 4.4h-4.4v-4.4z"/>
            <path d="M50.3 12.1l-45 26.2 3 5.1 5-2.9v46.7h7.5V46h58.8v41.1h7.6V40.4l5 2.9 3-5.1-44.9-26.1zM52 35.8h-3.5v-6.6H52v6.6z"/>
        </g>
    </g>
</svg>
